<svg xmlns="http://www.w3.org/2000/svg" xmlns:xlink="http://www.w3.org/1999/xlink" width="1080" zoomAndPan="magnify" viewBox="0 0 810 809.999993" height="1080" preserveAspectRatio="xMidYMid meet" version="1.0"><defs><clipPath id="2c90566ebd"><path d="M 151 166.183594 L 309 166.183594 L 309 183 L 151 183 Z M 151 166.183594 " clip-rule="nonzero"/></clipPath><clipPath id="43b6e6b1b9"><path d="M 0 166.183594 L 810 166.183594 L 810 566.683594 L 0 566.683594 Z M 0 166.183594 " clip-rule="nonzero"/></clipPath></defs><g clip-path="url(#2c90566ebd)"><path fill="#444444" d="M 232.875 141.75 C 227.8125 146.8125 207.5625 162 151.875 162 C 207.5625 162 227.8125 177.1875 232.875 182.25 C 243 172.125 263.25 162 308.8125 162 C 263.25 162 243 151.875 232.875 141.75 Z M 232.875 141.75 " fill-opacity="1" fill-rule="nonzero"/></g><g clip-path="url(#43b6e6b1b9)"><path fill="#444444" d="M 405 -243 C 182.25 -243 0 -60.75 0 162 C 0 384.75 182.25 567 405 567 C 627.75 567 810 384.75 810 162 C 810 -60.75 627.75 -243 405 -243 Z M 663.1875 344.25 C 612.5625 344.25 592.3125 303.75 582.1875 263.25 C 572.0625 308.8125 551.8125 364.5 491.0625 364.5 C 435.375 364.5 415.125 308.8125 405 263.25 C 394.875 313.875 374.625 364.5 318.9375 364.5 C 263.25 364.5 237.9375 308.8125 227.8125 263.25 C 217.6875 303.75 197.4375 344.25 146.8125 344.25 C 45.5625 344.25 50.625 192.375 50.625 192.375 C 50.625 192.375 60.75 162 136.6875 162 C 60.75 162 50.625 136.6875 50.625 136.6875 C 50.625 136.6875 45.5625 -15.1875 146.8125 -15.1875 C 197.4375 -15.1875 217.6875 25.3125 227.8125 65.8125 C 237.9375 20.25 258.1875 -35.4375 318.9375 -35.4375 C 374.625 -40.5 394.875 15.1875 405 60.75 C 415.125 10.125 435.375 -40.5 491.0625 -40.5 C 546.75 -40.5 572.0625 15.1875 582.1875 60.75 C 592.3125 20.25 612.5625 -20.25 663.1875 -20.25 C 764.4375 -20.25 759.375 131.625 759.375 131.625 C 759.375 131.625 744.1875 162 668.25 162 C 607.5 162 587.25 146.8125 577.125 141.75 C 567 151.875 541.6875 162 496.125 162 C 435.375 162 415.125 151.875 405 141.75 C 399.9375 146.8125 374.625 162 324 162 C 374.625 162 394.875 177.1875 405 182.25 C 415.125 172.125 435.375 162 496.125 162 C 546.75 162 567 172.125 582.1875 182.25 C 582.1875 177.1875 607.5 162 668.25 162 C 744.1875 162 759.375 192.375 759.375 192.375 C 759.375 192.375 764.4375 344.25 663.1875 344.25 Z M 663.1875 344.25 " fill-opacity="1" fill-rule="nonzero"/></g></svg>