<svg xmlns="http://www.w3.org/2000/svg" xmlns:xlink="http://www.w3.org/1999/xlink" width="1080" zoomAndPan="magnify" viewBox="0 0 810 809.999993" height="1080" preserveAspectRatio="xMidYMid meet" version="1.0"><defs><clipPath id="32f9afc47f"><path d="M 151 475 L 309 475 L 309 492.835938 L 151 492.835938 Z M 151 475 " clip-rule="nonzero"/></clipPath><clipPath id="70068f3ab2"><path d="M 0 90.835938 L 810 90.835938 L 810 492.835938 L 0 492.835938 Z M 0 90.835938 " clip-rule="nonzero"/></clipPath></defs><g clip-path="url(#32f9afc47f)"><path fill="#444444" d="M 232.875 475.585938 C 227.8125 480.648438 207.5625 495.835938 151.875 495.835938 C 207.5625 495.835938 227.8125 511.023438 232.875 516.085938 C 243 505.960938 263.25 495.835938 308.8125 495.835938 C 263.25 495.835938 243 485.710938 232.875 475.585938 Z M 232.875 475.585938 " fill-opacity="1" fill-rule="nonzero"/></g><g clip-path="url(#70068f3ab2)"><path fill="#444444" d="M 405 90.835938 C 182.25 90.835938 0 273.085938 0 495.835938 C 0 718.585938 182.25 900.835938 405 900.835938 C 627.75 900.835938 810 718.585938 810 495.835938 C 810 273.085938 627.75 90.835938 405 90.835938 Z M 663.1875 678.085938 C 612.5625 678.085938 592.3125 637.585938 582.1875 597.085938 C 572.0625 642.648438 551.8125 698.335938 491.0625 698.335938 C 435.375 698.335938 415.125 642.648438 405 597.085938 C 394.875 647.710938 374.625 698.335938 318.9375 698.335938 C 263.25 698.335938 237.9375 642.648438 227.8125 597.085938 C 217.6875 637.585938 197.4375 678.085938 146.8125 678.085938 C 45.5625 678.085938 50.625 526.210938 50.625 526.210938 C 50.625 526.210938 60.75 495.835938 136.6875 495.835938 C 60.75 495.835938 50.625 470.523438 50.625 470.523438 C 50.625 470.523438 45.5625 318.648438 146.8125 318.648438 C 197.4375 318.648438 217.6875 359.148438 227.8125 399.648438 C 237.9375 354.085938 258.1875 298.398438 318.9375 298.398438 C 374.625 293.335938 394.875 349.023438 405 394.585938 C 415.125 343.960938 435.375 293.335938 491.0625 293.335938 C 546.75 293.335938 572.0625 349.023438 582.1875 394.585938 C 592.3125 354.085938 612.5625 313.585938 663.1875 313.585938 C 764.4375 313.585938 759.375 465.460938 759.375 465.460938 C 759.375 465.460938 744.1875 495.835938 668.25 495.835938 C 607.5 495.835938 587.25 480.648438 577.125 475.585938 C 567 485.710938 541.6875 495.835938 496.125 495.835938 C 435.375 495.835938 415.125 485.710938 405 475.585938 C 399.9375 480.648438 374.625 495.835938 324 495.835938 C 374.625 495.835938 394.875 511.023438 405 516.085938 C 415.125 505.960938 435.375 495.835938 496.125 495.835938 C 546.75 495.835938 567 505.960938 582.1875 516.085938 C 582.1875 511.023438 607.5 495.835938 668.25 495.835938 C 744.1875 495.835938 759.375 526.210938 759.375 526.210938 C 759.375 526.210938 764.4375 678.085938 663.1875 678.085938 Z M 663.1875 678.085938 " fill-opacity="1" fill-rule="nonzero"/></g></svg>